<svg xmlns="http://www.w3.org/2000/svg" viewBox="0 0 24 24" fill="currentColor">
  <!-- database cylinder (three tiers) -->
  <path d="M9 2C5 2 2 3.2 2 4.7s3 2.7 7 2.7 7-1.2 7-2.7S13 2 9 2z"/>
  <path d="M2 7.3v3.5C2 12.3 5 13.5 9 13.5s7-1.2 7-2.7V7.3c0 1.5-3 2.7-7 2.7s-7-1.2-7-2.7z"/>
  <path d="M2 13.6v3.7C2 18.8 5 20 9 20s7-1.2 7-2.7v-3.7c0 1.5-3 2.7-7 2.7s-7-1.2-7-2.7z"/>
  <!-- sync arrows (portable / synced) bottom-right -->
  <path d="M22 17.6a3.4 3.4 0 0 1-5.9 2.3l1-1a2 2 0 0 0 3.3-1.3h-1.3l1.8-2 1.8 2H22zm-6.8-.9a3.4 3.4 0 0 1 5.9-2.3l-1 1a2 2 0 0 0-3.3 1.3h1.3l-1.8 2-1.8-2h.7z"/>
</svg>
